<?xml version="1.0" encoding="UTF-8" standalone="no"?>
<!DOCTYPE svg PUBLIC "-//W3C//DTD SVG 20010904//EN"
              "http://www.w3.org/TR/2001/REC-SVG-20010904/DTD/svg10.dtd">

<svg xmlns="http://www.w3.org/2000/svg"
     width="1918px" height="1257px"
     viewBox="0 0 1898 1244">
  <path id="Selection"
        fill="#fdb302" stroke="#fdb302" stroke-width="1"
        d="M 699.00,112.00
           C 699.00,112.00 680.42,145.00 680.42,145.00
             680.42,145.00 643.42,209.00 643.42,209.00
             643.42,209.00 548.60,373.00 548.60,373.00
             548.60,373.00 517.57,427.00 517.57,427.00
             517.57,427.00 440.58,560.00 440.58,560.00
             440.58,560.00 409.42,614.00 409.42,614.00
             407.05,618.14 396.82,634.68 396.35,638.00
             395.90,641.24 399.69,648.54 400.95,652.00
             403.67,659.50 404.99,666.02 405.00,674.00
             405.00,674.00 405.00,682.00 405.00,682.00
             404.97,701.91 395.73,721.52 381.00,734.83
             340.97,771.01 275.37,755.65 257.34,704.00
             255.00,697.30 253.09,688.09 253.00,681.00
             252.63,648.64 268.81,621.31 299.00,608.29
             304.94,605.73 310.60,604.05 317.00,603.13
             319.54,602.77 327.94,602.04 329.62,600.98
             332.05,599.46 334.90,593.62 336.42,591.00
             336.42,591.00 348.70,570.00 348.70,570.00
             348.70,570.00 388.58,501.00 388.58,501.00
             388.58,501.00 466.58,366.00 466.58,366.00
             466.58,366.00 544.58,231.00 544.58,231.00
             544.58,231.00 593.60,146.00 593.60,146.00
             593.60,146.00 654.85,40.00 654.85,40.00
             663.15,25.45 670.52,7.18 688.00,2.04
             692.54,0.71 697.31,0.95 702.00,1.00
             722.35,1.24 729.09,14.73 738.20,30.00
             738.20,30.00 754.28,57.00 754.28,57.00
             754.28,57.00 859.86,235.00 859.86,235.00
             859.86,235.00 957.20,399.00 957.20,399.00
             957.20,399.00 980.28,438.00 980.28,438.00
             989.46,453.91 994.23,456.79 994.00,476.00
             993.88,485.66 988.62,493.90 983.80,502.00
             983.80,502.00 966.42,532.00 966.42,532.00
             966.42,532.00 893.42,659.00 893.42,659.00
             893.42,659.00 706.43,984.00 706.43,984.00
             706.43,984.00 655.85,1072.00 655.85,1072.00
             655.85,1072.00 624.00,1127.00 624.00,1127.00
             624.00,1127.00 790.00,1127.00 790.00,1127.00
             792.38,1127.00 795.70,1127.21 797.79,1125.98
             800.08,1124.63 801.67,1121.26 803.01,1119.00
             803.01,1119.00 812.99,1102.00 812.99,1102.00
             812.99,1102.00 859.72,1021.00 859.72,1021.00
             859.72,1021.00 984.58,805.00 984.58,805.00
             984.58,805.00 1053.80,685.00 1053.80,685.00
             1053.80,685.00 1144.42,528.00 1144.42,528.00
             1144.42,528.00 1156.85,508.00 1156.85,508.00
             1156.85,508.00 1169.58,486.00 1169.58,486.00
             1172.73,480.51 1177.42,471.58 1181.32,467.01
             1187.92,459.30 1200.74,453.44 1211.00,454.18
             1234.55,455.89 1240.12,470.03 1250.42,488.00
             1250.42,488.00 1289.28,556.00 1289.28,556.00
             1289.28,556.00 1471.58,875.00 1471.58,875.00
             1471.58,875.00 1493.28,913.00 1493.28,913.00
             1499.52,923.95 1503.94,928.71 1504.00,942.00
             1504.07,957.73 1498.00,969.92 1483.00,976.69
             1476.90,979.44 1471.59,979.99 1465.00,980.00
             1465.00,980.00 978.00,980.00 978.00,980.00
             968.14,980.02 969.50,980.68 961.60,994.00
             961.60,994.00 940.20,1031.00 940.20,1031.00
             940.20,1031.00 898.15,1104.00 898.15,1104.00
             898.15,1104.00 866.28,1159.00 866.28,1159.00
             855.42,1178.10 846.59,1200.70 821.00,1201.00
             821.00,1201.00 728.00,1201.00 728.00,1201.00
             728.00,1201.00 560.00,1201.00 560.00,1201.00
             533.56,1200.96 516.09,1178.35 524.36,1153.00
             524.36,1153.00 548.58,1109.00 548.58,1109.00
             548.58,1109.00 597.42,1024.00 597.42,1024.00
             597.42,1024.00 826.28,626.00 826.28,626.00
             826.28,626.00 888.42,518.00 888.42,518.00
             888.42,518.00 906.28,487.00 906.28,487.00
             907.83,484.28 912.67,476.70 912.81,474.00
             912.95,471.23 910.22,467.36 908.80,465.00
             908.80,465.00 898.72,448.00 898.72,448.00
             898.72,448.00 857.20,378.00 857.20,378.00
             857.20,378.00 747.40,193.00 747.40,193.00
             747.40,193.00 716.01,140.00 716.01,140.00
             716.01,140.00 699.00,112.00 699.00,112.00 Z
           M 1795.00,1132.00
           C 1795.00,1132.00 1704.99,978.00 1704.99,978.00
             1704.99,978.00 1629.58,849.00 1629.58,849.00
             1629.58,849.00 1578.72,762.00 1578.72,762.00
             1578.72,762.00 1539.42,695.00 1539.42,695.00
             1539.42,695.00 1432.28,511.00 1432.28,511.00
             1432.28,511.00 1361.85,389.00 1361.85,389.00
             1361.85,389.00 1336.42,345.00 1336.42,345.00
             1336.42,345.00 1324.10,324.28 1324.10,324.28
             1320.94,320.66 1316.37,321.10 1312.00,320.41
             1303.91,319.13 1297.52,317.52 1290.00,314.14
             1262.75,301.87 1245.34,272.72 1246.01,243.00
             1246.90,203.79 1279.24,169.47 1319.00,169.00
             1351.15,168.63 1376.76,182.61 1391.24,212.00
             1395.72,221.08 1399.28,235.88 1398.96,246.00
             1398.73,253.31 1396.51,265.15 1393.94,272.00
             1392.50,275.81 1387.77,284.39 1388.46,288.00
             1388.46,288.00 1400.80,310.00 1400.80,310.00
             1400.80,310.00 1426.42,354.00 1426.42,354.00
             1426.42,354.00 1626.58,696.00 1626.58,696.00
             1626.58,696.00 1719.58,855.00 1719.58,855.00
             1719.58,855.00 1759.20,923.00 1759.20,923.00
             1759.20,923.00 1833.42,1050.00 1833.42,1050.00
             1833.42,1050.00 1882.72,1134.00 1882.72,1134.00
             1886.81,1141.17 1894.25,1152.57 1896.24,1160.00
             1900.32,1175.21 1894.85,1197.27 1878.00,1202.35
             1875.50,1203.11 1872.60,1203.00 1870.00,1203.00
             1870.00,1203.00 1187.00,1203.00 1187.00,1203.00
             1184.59,1203.00 1181.42,1202.78 1179.30,1204.02
             1176.97,1205.38 1173.38,1210.67 1171.63,1213.00
             1167.90,1217.94 1164.74,1221.64 1160.00,1225.70
             1146.11,1237.59 1127.26,1244.20 1109.00,1244.00
             1076.96,1243.63 1047.59,1222.69 1037.75,1192.00
             1034.51,1181.90 1033.88,1174.47 1034.00,1164.00
             1034.36,1133.96 1055.18,1106.59 1083.00,1096.23
             1090.36,1093.49 1096.31,1092.60 1104.00,1091.83
             1104.00,1091.83 1110.00,1091.18 1110.00,1091.18
             1110.00,1091.18 1126.00,1093.20 1126.00,1093.20
             1142.55,1096.49 1157.36,1105.03 1168.25,1118.00
             1172.17,1122.68 1175.70,1125.87 1177.00,1132.00
             1177.00,1132.00 1795.00,1132.00 1795.00,1132.00 Z
           M 102.00,1127.00
           C 102.00,1127.00 268.00,1127.00 268.00,1127.00
             270.35,1127.00 273.63,1127.22 275.67,1125.98
             278.08,1124.52 280.01,1120.44 281.42,1118.00
             281.42,1118.00 291.40,1101.00 291.40,1101.00
             291.40,1101.00 340.42,1016.00 340.42,1016.00
             340.42,1016.00 482.42,770.00 482.42,770.00
             482.42,770.00 529.85,688.00 529.85,688.00
             529.85,688.00 546.70,659.00 546.70,659.00
             546.70,659.00 595.15,575.00 595.15,575.00
             595.15,575.00 608.42,552.00 608.42,552.00
             610.01,549.26 614.89,541.52 615.58,539.00
             616.69,534.98 613.28,528.87 611.81,525.00
             609.34,518.46 607.09,508.98 607.00,502.00
             607.00,502.00 607.00,495.00 607.00,495.00
             607.05,462.21 629.79,433.67 661.00,424.44
             671.17,421.43 678.60,421.88 689.00,422.00
             715.07,422.31 741.43,441.67 752.10,465.00
             758.02,477.94 759.16,488.06 759.00,502.00
             758.67,529.59 739.22,556.92 714.00,567.54
             708.37,569.91 701.05,572.00 695.00,572.87
             691.71,573.34 684.68,573.77 682.21,575.60
             679.50,577.60 674.61,586.68 672.72,590.00
             672.72,590.00 655.42,620.00 655.42,620.00
             655.42,620.00 407.15,1050.00 407.15,1050.00
             407.15,1050.00 358.58,1134.00 358.58,1134.00
             358.58,1134.00 342.30,1162.00 342.30,1162.00
             331.21,1182.15 323.36,1200.96 297.00,1201.00
             297.00,1201.00 68.00,1201.00 68.00,1201.00
             68.00,1201.00 36.00,1201.00 36.00,1201.00
             20.35,1200.93 6.72,1192.18 1.75,1177.00
             0.19,1172.24 -0.10,1168.97 0.01,1164.00
             0.32,1150.71 9.75,1137.22 16.40,1126.00
             16.40,1126.00 52.15,1064.00 52.15,1064.00
             52.15,1064.00 151.85,891.00 151.85,891.00
             151.85,891.00 191.00,823.00 191.00,823.00
             198.47,824.40 207.29,830.68 214.00,834.58
             214.00,834.58 256.00,859.00 256.00,859.00
             256.00,859.00 239.28,889.00 239.28,889.00
             239.28,889.00 203.42,951.00 203.42,951.00
             203.42,951.00 102.00,1127.00 102.00,1127.00 Z
           M 1210.00,566.00
           C 1210.00,566.00 1208.00,566.00 1208.00,566.00
             1208.00,566.00 1161.42,647.00 1161.42,647.00
             1161.42,647.00 1058.15,826.00 1058.15,826.00
             1058.15,826.00 1025.15,883.00 1025.15,883.00
             1025.15,883.00 1011.00,908.00 1011.00,908.00
             1011.00,908.00 1404.00,908.00 1404.00,908.00
             1404.00,908.00 1386.42,876.00 1386.42,876.00
             1386.42,876.00 1352.85,817.00 1352.85,817.00
             1352.85,817.00 1251.15,639.00 1251.15,639.00
             1251.15,639.00 1223.14,590.00 1223.14,590.00
             1223.14,590.00 1210.00,566.00 1210.00,566.00 Z" />
</svg>
